<?xml version="1.0" encoding="iso-8859-1"?>
<!-- Generator: Adobe Illustrator 18.0.0, SVG Export Plug-In . SVG Version: 6.00 Build 0)  -->
<!DOCTYPE svg PUBLIC "-//W3C//DTD SVG 1.1//EN" "http://www.w3.org/Graphics/SVG/1.1/DTD/svg11.dtd">
<svg version="1.1" id="Capa_1" xmlns="http://www.w3.org/2000/svg" xmlns:xlink="http://www.w3.org/1999/xlink" x="0px" y="0px"
	 viewBox="0 0 303.124 303.124" style="enable-background:new 0 0 303.124 303.124;" xml:space="preserve">
<path d="M290.245,85.686c-1.136-1.469-2.889-2.33-4.747-2.33h-67.717L163.252,2.642c-1.855-2.746-5.585-3.468-8.331-1.613
	c-2.746,1.855-3.468,5.584-1.613,8.33l49.991,73.997H87.169l49.99-73.997c1.855-2.746,1.133-6.475-1.613-8.33
	c-2.746-1.855-6.476-1.134-8.331,1.613L72.687,83.356H6c-1.857,0-3.61,0.86-4.747,2.33c-1.136,1.469-1.528,3.382-1.06,5.18
	l41.773,160.635c0.688,2.644,3.075,4.49,5.807,4.49h195.953c2.732,0,5.119-1.846,5.807-4.49l41.772-160.635
	C291.772,89.069,291.381,87.156,290.245,85.686z M253.011,190.445h-59.857v-41.546h70.661L253.011,190.445z M181.153,190.445h-70.81
	v-41.546h70.81V190.445z M181.153,202.445v41.546h-70.81v-41.546H181.153z M27.684,148.899h70.66v41.546H38.487L27.684,148.899z
	 M110.344,136.899V95.356h70.81v41.543H110.344z M75.862,95.356c0.002,0,0.004,0,0.007,0c0.003,0,0.005,0,0.008,0h22.466v41.543
	H24.563L13.76,95.356H75.862z M41.608,202.445h56.735v41.546H52.412L41.608,202.445z M239.086,243.991h-45.933v-41.546h56.737
	L239.086,243.991z M266.935,136.899h-73.782V95.356h21.438c0.003,0,0.005,0,0.008,0c0.002,0,0.004,0,0.007,0h63.132L266.935,136.899
	z"/>
<g>
</g>
<g>
</g>
<g>
</g>
<g>
</g>
<g>
</g>
<g>
</g>
<g>
</g>
<g>
</g>
<g>
</g>
<g>
</g>
<g>
</g>
<g>
</g>
<g>
</g>
<g>
</g>
<g>
</g>
</svg>
