<?xml version="1.0" encoding="UTF-8" standalone="no"?>
<!-- Generator: Adobe Illustrator 18.1.1, SVG Export Plug-In . SVG Version: 6.00 Build 0)  -->

<svg
   version="1.1"
   id="Capa_1"
   x="0px"
   y="0px"
   viewBox="0 0 591.6 591.6"
   style="enable-background:new 0 0 591.6 591.6;"
   xml:space="preserve"
   sodipodi:docname="login.svg"
   inkscape:version="1.1.2 (b8e25be833, 2022-02-05)"
   xmlns:inkscape="http://www.inkscape.org/namespaces/inkscape"
   xmlns:sodipodi="http://sodipodi.sourceforge.net/DTD/sodipodi-0.dtd"
   xmlns="http://www.w3.org/2000/svg"
   xmlns:svg="http://www.w3.org/2000/svg"><defs
   id="defs43" /><sodipodi:namedview
   id="namedview41"
   pagecolor="#505050"
   bordercolor="#eeeeee"
   borderopacity="1"
   inkscape:pageshadow="0"
   inkscape:pageopacity="0"
   inkscape:pagecheckerboard="0"
   showgrid="false"
   inkscape:zoom="0.70740368"
   inkscape:cx="262.93332"
   inkscape:cy="436.80858"
   inkscape:window-width="1920"
   inkscape:window-height="1017"
   inkscape:window-x="1912"
   inkscape:window-y="-8"
   inkscape:window-maximized="1"
   inkscape:current-layer="g8" />
<g
   id="g8">
	<g
   id="g6"
   transform="matrix(-1,0,0,1,591.6,0)">
		<path
   d="M 234.6,571.2 H 61.2 V 20.4 h 173.4 c 5.712,0 10.2,-4.488 10.2,-10.2 C 244.8,4.488 240.312,0 234.6,0 H 51 C 45.288,0 40.8,4.488 40.8,10.2 v 571.2 c 0,5.712 4.488,10.2 10.2,10.2 h 183.6 c 5.712,0 10.2,-4.488 10.2,-10.2 0,-5.712 -4.692,-10.2 -10.2,-10.2 z"
   id="path2" />
		<path
   d="m 143.616,299.676 c -0.204,-0.408 -0.204,-0.612 -0.408,-1.02 0,-0.204 -0.204,-0.612 -0.204,-0.816 -0.204,-0.612 -0.204,-1.224 -0.204,-2.04 v 0 0 c 0,-0.612 0,-1.428 0.204,-2.04 0,-0.204 0.204,-0.612 0.204,-0.816 0,-0.408 0.204,-0.612 0.408,-1.02 0.204,-0.408 0.408,-0.612 0.612,-1.02 0.204,-0.204 0.204,-0.612 0.408,-0.816 0.408,-0.612 0.816,-1.02 1.224,-1.632 l 102,-102 c 4.08,-4.08 10.404,-4.08 14.484,0 4.08,4.08 4.08,10.404 0,14.484 l -84.66,84.66 H 540.6 c 5.712,0 10.2,4.488 10.2,10.2 0,5.712 -4.488,10.2 -10.2,10.2 H 177.684 l 84.66,84.66 c 4.08,4.08 4.08,10.404 0,14.484 -2.04,2.04 -4.692,3.06 -7.14,3.06 -2.448,0 -5.304,-1.02 -7.14,-3.06 l -102,-102 c -0.408,-0.408 -0.816,-1.02 -1.224,-1.632 -0.204,-0.204 -0.204,-0.408 -0.408,-0.816 -0.408,-0.408 -0.612,-0.612 -0.816,-1.02 z"
   id="path4" />
	</g>
</g>
<g
   id="g10">
</g>
<g
   id="g12">
</g>
<g
   id="g14">
</g>
<g
   id="g16">
</g>
<g
   id="g18">
</g>
<g
   id="g20">
</g>
<g
   id="g22">
</g>
<g
   id="g24">
</g>
<g
   id="g26">
</g>
<g
   id="g28">
</g>
<g
   id="g30">
</g>
<g
   id="g32">
</g>
<g
   id="g34">
</g>
<g
   id="g36">
</g>
<g
   id="g38">
</g>
</svg>
